M48
; DRILL file KiCad 10.0.6 date 2026-09-17T11:00:29
; FORMAT={-:-/ absolute / metric / decimal}
; #@! TF.CreationDate,2026-09-17T11:00:29+08:00
; #@! TF.GenerationSoftware,Kicad,Pcbnew,10.0.6
; #@! TF.FileFunction,Plated,1,2,PTH
FMAT,2
METRIC
; #@! TA.AperFunction,Plated,PTH,ViaDrill
T1C0.300
; #@! TA.AperFunction,Plated,PTH,ComponentDrill
T2C0.800
; #@! TA.AperFunction,Plated,PTH,ComponentDrill
T3C1.500
%
G90
G05
T1
X144.5Y-175.7
X144.5Y-176.5
X145.0Y-177.4
X146.0Y-178.2
T2
X86.28Y-127.5
X86.63Y-164.0
X86.68Y-145.4
X87.69Y-107.5
X93.9Y-127.5
X94.25Y-164.0
X94.3Y-145.4
X95.31Y-107.5
X105.33Y-127.5
X105.68Y-164.0
X105.73Y-145.4
X106.485Y-108.0
X112.95Y-127.5
X113.3Y-164.0
X113.35Y-145.4
X114.105Y-108.0
X122.19Y-108.0
X124.38Y-127.5
X124.73Y-164.0
X124.78Y-145.4
X129.81Y-108.0
X132.0Y-127.5
X132.35Y-164.0
X132.4Y-145.4
X142.38Y-128.0
X142.69Y-107.5
X143.78Y-164.0
X143.83Y-145.4
X150.0Y-128.0
X150.31Y-107.5
X151.4Y-164.0
X151.45Y-145.4
X161.38Y-127.5
X161.69Y-107.5
X162.83Y-164.0
X162.88Y-145.4
X169.0Y-127.5
X169.31Y-107.5
X170.45Y-164.0
X170.5Y-145.4
X180.88Y-145.0
X181.88Y-128.0
X181.88Y-164.0
X182.19Y-108.5
X188.5Y-145.0
X189.5Y-128.0
X189.5Y-164.0
X189.81Y-108.5
T3
X96.555Y-100.0
X96.555Y-119.05
X96.555Y-138.1
X96.555Y-157.15
X102.905Y-102.54
X102.905Y-121.59
X102.905Y-140.64
X102.905Y-159.69
X115.605Y-100.0
X115.605Y-119.05
X115.605Y-138.1
X115.605Y-157.15
X121.955Y-102.54
X121.955Y-121.59
X121.955Y-140.64
X121.955Y-159.69
X134.655Y-100.0
X134.655Y-119.05
X134.655Y-138.1
X134.655Y-157.15
X141.005Y-102.54
X141.005Y-121.59
X141.005Y-140.64
X141.005Y-159.69
X153.705Y-100.0
X153.705Y-119.05
X153.705Y-138.1
X153.705Y-157.15
X160.055Y-102.54
X160.055Y-121.59
X160.055Y-140.64
X160.055Y-159.69
X172.755Y-100.0
X172.755Y-119.05
X172.755Y-138.1
X172.755Y-157.15
X179.105Y-102.54
X179.105Y-121.59
X179.105Y-140.64
X179.105Y-159.69
X191.805Y-100.0
X191.805Y-119.05
X191.805Y-138.1
X191.805Y-157.15
X198.155Y-102.54
X198.155Y-121.59
X198.155Y-140.64
X198.155Y-159.69
M30
