%TF.GenerationSoftware,KiCad,Pcbnew,10.0.6*%
%TF.CreationDate,2026-09-17T11:00:47+08:00*%
%TF.ProjectId,Steno Hackpad,5374656e-6f20-4486-9163-6b7061642e6b,rev?*%
%TF.SameCoordinates,Original*%
%TF.FileFunction,Soldermask,Bot*%
%TF.FilePolarity,Negative*%
%FSLAX46Y46*%
G04 Gerber Fmt 4.6, Leading zero omitted, Abs format (unit mm)*
G04 Created by KiCad (PCBNEW 10.0.6) date 2026-09-17 11:00:47*
%MOMM*%
%LPD*%
G01*
G04 APERTURE LIST*
G04 Aperture macros list*
%AMRoundRect*
0 Rectangle with rounded corners*
0 $1 Rounding radius*
0 $2 $3 $4 $5 $6 $7 $8 $9 X,Y pos of 4 corners*
0 Add a 4 corners polygon primitive as box body*
4,1,4,$2,$3,$4,$5,$6,$7,$8,$9,$2,$3,0*
0 Add four circle primitives for the rounded corners*
1,1,$1+$1,$2,$3*
1,1,$1+$1,$4,$5*
1,1,$1+$1,$6,$7*
1,1,$1+$1,$8,$9*
0 Add four rect primitives between the rounded corners*
20,1,$1+$1,$2,$3,$4,$5,0*
20,1,$1+$1,$4,$5,$6,$7,0*
20,1,$1+$1,$6,$7,$8,$9,0*
20,1,$1+$1,$8,$9,$2,$3,0*%
G04 Aperture macros list end*
%ADD10C,1.600000*%
%ADD11RoundRect,0.250000X0.550000X0.550000X-0.550000X0.550000X-0.550000X-0.550000X0.550000X-0.550000X0*%
%ADD12C,2.200000*%
%ADD13C,4.000000*%
%ADD14RoundRect,0.137500X0.600000X0.137500X-0.600000X0.137500X-0.600000X-0.137500X0.600000X-0.137500X0*%
%ADD15RoundRect,0.137500X0.137500X0.600000X-0.137500X0.600000X-0.137500X-0.600000X0.137500X-0.600000X0*%
G04 APERTURE END LIST*
D10*
%TO.C,D2*%
X181880000Y-128000000D03*
D11*
X189500000Y-128000000D03*
%TD*%
D12*
%TO.C,SW16*%
X141005000Y-159690000D03*
X134655000Y-157150000D03*
D13*
X137195000Y-162230000D03*
%TD*%
D12*
%TO.C,SW15*%
X141005000Y-140640000D03*
X134655000Y-138100000D03*
D13*
X137195000Y-143180000D03*
%TD*%
D12*
%TO.C,SW18*%
X121955000Y-121590000D03*
X115605000Y-119050000D03*
D13*
X118145000Y-124130000D03*
%TD*%
D10*
%TO.C,D20*%
X105680000Y-164000000D03*
D11*
X113300000Y-164000000D03*
%TD*%
D12*
%TO.C,SW7*%
X179105000Y-140640000D03*
X172755000Y-138100000D03*
D13*
X175295000Y-143180000D03*
%TD*%
D10*
%TO.C,D14*%
X124380000Y-127500000D03*
D11*
X132000000Y-127500000D03*
%TD*%
D12*
%TO.C,SW23*%
X102905000Y-140640000D03*
X96555000Y-138100000D03*
D13*
X99095000Y-143180000D03*
%TD*%
D12*
%TO.C,SW19*%
X121955000Y-140640000D03*
X115605000Y-138100000D03*
D13*
X118145000Y-143180000D03*
%TD*%
D12*
%TO.C,SW20*%
X121955000Y-159690000D03*
X115605000Y-157150000D03*
D13*
X118145000Y-162230000D03*
%TD*%
D12*
%TO.C,SW8*%
X179105000Y-159690000D03*
X172755000Y-157150000D03*
D13*
X175295000Y-162230000D03*
%TD*%
D10*
%TO.C,D1*%
X182190000Y-108500000D03*
D11*
X189810000Y-108500000D03*
%TD*%
D10*
%TO.C,D15*%
X124780000Y-145400000D03*
D11*
X132400000Y-145400000D03*
%TD*%
D10*
%TO.C,D6*%
X161380000Y-127500000D03*
D11*
X169000000Y-127500000D03*
%TD*%
D12*
%TO.C,SW10*%
X160055000Y-121590000D03*
X153705000Y-119050000D03*
D13*
X156245000Y-124130000D03*
%TD*%
D10*
%TO.C,D12*%
X143780000Y-164000000D03*
D11*
X151400000Y-164000000D03*
%TD*%
D10*
%TO.C,D7*%
X162880000Y-145400000D03*
D11*
X170500000Y-145400000D03*
%TD*%
D10*
%TO.C,D16*%
X124730000Y-164000000D03*
D11*
X132350000Y-164000000D03*
%TD*%
D10*
%TO.C,D3*%
X180880000Y-145000000D03*
D11*
X188500000Y-145000000D03*
%TD*%
D10*
%TO.C,D8*%
X162830000Y-164000000D03*
D11*
X170450000Y-164000000D03*
%TD*%
D10*
%TO.C,D21*%
X87690000Y-107500000D03*
D11*
X95310000Y-107500000D03*
%TD*%
D10*
%TO.C,D22*%
X86280000Y-127500000D03*
D11*
X93900000Y-127500000D03*
%TD*%
D10*
%TO.C,D23*%
X86680000Y-145400000D03*
D11*
X94300000Y-145400000D03*
%TD*%
D12*
%TO.C,SW12*%
X160055000Y-159690000D03*
X153705000Y-157150000D03*
D13*
X156245000Y-162230000D03*
%TD*%
D10*
%TO.C,D24*%
X86630000Y-164000000D03*
D11*
X94250000Y-164000000D03*
%TD*%
D10*
%TO.C,D13*%
X122190000Y-108000000D03*
D11*
X129810000Y-108000000D03*
%TD*%
D12*
%TO.C,SW11*%
X160055000Y-140640000D03*
X153705000Y-138100000D03*
D13*
X156245000Y-143180000D03*
%TD*%
D10*
%TO.C,D4*%
X181880000Y-164000000D03*
D11*
X189500000Y-164000000D03*
%TD*%
D12*
%TO.C,SW6*%
X179105000Y-121590000D03*
X172755000Y-119050000D03*
D13*
X175295000Y-124130000D03*
%TD*%
D10*
%TO.C,D5*%
X161690000Y-107500000D03*
D11*
X169310000Y-107500000D03*
%TD*%
D10*
%TO.C,D9*%
X142690000Y-107500000D03*
D11*
X150310000Y-107500000D03*
%TD*%
D12*
%TO.C,SW22*%
X102905000Y-121590000D03*
X96555000Y-119050000D03*
D13*
X99095000Y-124130000D03*
%TD*%
D10*
%TO.C,D11*%
X143830000Y-145400000D03*
D11*
X151450000Y-145400000D03*
%TD*%
D12*
%TO.C,SW14*%
X141005000Y-121590000D03*
X134655000Y-119050000D03*
D13*
X137195000Y-124130000D03*
%TD*%
D10*
%TO.C,D18*%
X105330000Y-127500000D03*
D11*
X112950000Y-127500000D03*
%TD*%
D10*
%TO.C,D17*%
X106485000Y-108000000D03*
D11*
X114105000Y-108000000D03*
%TD*%
D10*
%TO.C,D10*%
X142380000Y-128000000D03*
D11*
X150000000Y-128000000D03*
%TD*%
D12*
%TO.C,SW24*%
X102905000Y-159690000D03*
X96555000Y-157150000D03*
D13*
X99095000Y-162230000D03*
%TD*%
D10*
%TO.C,D19*%
X105730000Y-145400000D03*
D11*
X113350000Y-145400000D03*
%TD*%
D13*
%TO.C,SW4*%
X194345000Y-162230000D03*
D12*
X191805000Y-157150000D03*
X198155000Y-159690000D03*
%TD*%
D13*
%TO.C,SW1*%
X194345000Y-105080000D03*
D12*
X191805000Y-100000000D03*
X198155000Y-102540000D03*
%TD*%
D13*
%TO.C,SW13*%
X137195000Y-105080000D03*
D12*
X134655000Y-100000000D03*
X141005000Y-102540000D03*
%TD*%
D14*
%TO.C,U1*%
X142907500Y-175600000D03*
X142907500Y-176400000D03*
X142907500Y-177200000D03*
X142907500Y-178000000D03*
X142907500Y-178800000D03*
X142907500Y-179600000D03*
X142907500Y-180400000D03*
X142907500Y-181200000D03*
X142907500Y-182000000D03*
X142907500Y-182800000D03*
X142907500Y-183600000D03*
D15*
X141245000Y-185262500D03*
X140445000Y-185262500D03*
X139645000Y-185262500D03*
X138845000Y-185262500D03*
X138045000Y-185262500D03*
X137245000Y-185262500D03*
X136445000Y-185262500D03*
X135645000Y-185262500D03*
X134845000Y-185262500D03*
X134045000Y-185262500D03*
X133245000Y-185262500D03*
D14*
X131582500Y-183600000D03*
X131582500Y-182800000D03*
X131582500Y-182000000D03*
X131582500Y-181200000D03*
X131582500Y-180400000D03*
X131582500Y-179600000D03*
X131582500Y-178800000D03*
X131582500Y-178000000D03*
X131582500Y-177200000D03*
X131582500Y-176400000D03*
X131582500Y-175600000D03*
D15*
X133245000Y-173937500D03*
X134045000Y-173937500D03*
X134845000Y-173937500D03*
X135645000Y-173937500D03*
X136445000Y-173937500D03*
X137245000Y-173937500D03*
X138045000Y-173937500D03*
X138845000Y-173937500D03*
X139645000Y-173937500D03*
X140445000Y-173937500D03*
X141245000Y-173937500D03*
%TD*%
D13*
%TO.C,SW5*%
X175295000Y-105080000D03*
D12*
X172755000Y-100000000D03*
X179105000Y-102540000D03*
%TD*%
D13*
%TO.C,SW9*%
X156245000Y-105080000D03*
D12*
X153705000Y-100000000D03*
X160055000Y-102540000D03*
%TD*%
D13*
%TO.C,SW3*%
X194345000Y-143180000D03*
D12*
X191805000Y-138100000D03*
X198155000Y-140640000D03*
%TD*%
D13*
%TO.C,SW17*%
X118145000Y-105080000D03*
D12*
X115605000Y-100000000D03*
X121955000Y-102540000D03*
%TD*%
D13*
%TO.C,SW21*%
X99095000Y-105080000D03*
D12*
X96555000Y-100000000D03*
X102905000Y-102540000D03*
%TD*%
D13*
%TO.C,SW2*%
X194345000Y-124130000D03*
D12*
X191805000Y-119050000D03*
X198155000Y-121590000D03*
%TD*%
M02*
