M48
; DRILL file KiCad 10.0.6 date 2026-09-17T11:00:29
; FORMAT={-:-/ absolute / metric / decimal}
; #@! TF.CreationDate,2026-09-17T11:00:29+08:00
; #@! TF.GenerationSoftware,Kicad,Pcbnew,10.0.6
; #@! TF.FileFunction,NonPlated,1,2,NPTH
FMAT,2
METRIC
; #@! TA.AperFunction,NonPlated,NPTH,ComponentDrill
T1C4.000
%
G90
G05
T1
X99.095Y-105.08
X99.095Y-124.13
X99.095Y-143.18
X99.095Y-162.23
X118.145Y-105.08
X118.145Y-124.13
X118.145Y-143.18
X118.145Y-162.23
X137.195Y-105.08
X137.195Y-124.13
X137.195Y-143.18
X137.195Y-162.23
X156.245Y-105.08
X156.245Y-124.13
X156.245Y-143.18
X156.245Y-162.23
X175.295Y-105.08
X175.295Y-124.13
X175.295Y-143.18
X175.295Y-162.23
X194.345Y-105.08
X194.345Y-124.13
X194.345Y-143.18
X194.345Y-162.23
M30
