%TF.GenerationSoftware,KiCad,Pcbnew,10.0.6*%
%TF.CreationDate,2026-09-17T11:00:47+08:00*%
%TF.ProjectId,Steno Hackpad,5374656e-6f20-4486-9163-6b7061642e6b,rev?*%
%TF.SameCoordinates,Original*%
%TF.FileFunction,Copper,L1,Top*%
%TF.FilePolarity,Positive*%
%FSLAX46Y46*%
G04 Gerber Fmt 4.6, Leading zero omitted, Abs format (unit mm)*
G04 Created by KiCad (PCBNEW 10.0.6) date 2026-09-17 11:00:47*
%MOMM*%
%LPD*%
G01*
G04 APERTURE LIST*
G04 Aperture macros list*
%AMRoundRect*
0 Rectangle with rounded corners*
0 $1 Rounding radius*
0 $2 $3 $4 $5 $6 $7 $8 $9 X,Y pos of 4 corners*
0 Add a 4 corners polygon primitive as box body*
4,1,4,$2,$3,$4,$5,$6,$7,$8,$9,$2,$3,0*
0 Add four circle primitives for the rounded corners*
1,1,$1+$1,$2,$3*
1,1,$1+$1,$4,$5*
1,1,$1+$1,$6,$7*
1,1,$1+$1,$8,$9*
0 Add four rect primitives between the rounded corners*
20,1,$1+$1,$2,$3,$4,$5,0*
20,1,$1+$1,$4,$5,$6,$7,0*
20,1,$1+$1,$6,$7,$8,$9,0*
20,1,$1+$1,$8,$9,$2,$3,0*%
G04 Aperture macros list end*
%TA.AperFunction,ComponentPad*%
%ADD10C,1.600000*%
%TD*%
%TA.AperFunction,ComponentPad*%
%ADD11RoundRect,0.250000X0.550000X0.550000X-0.550000X0.550000X-0.550000X-0.550000X0.550000X-0.550000X0*%
%TD*%
%TA.AperFunction,ComponentPad*%
%ADD12C,2.200000*%
%TD*%
%TA.AperFunction,ViaPad*%
%ADD13C,0.600000*%
%TD*%
%TA.AperFunction,Conductor*%
%ADD14C,0.200000*%
%TD*%
G04 APERTURE END LIST*
D10*
%TO.P,D2,2,A_2*%
%TO.N,Net-(D2-A)*%
X181880000Y-128000000D03*
D11*
%TO.P,D2,1,K_1*%
%TO.N,/COL0*%
X189500000Y-128000000D03*
%TD*%
D12*
%TO.P,SW16,2,2_2*%
%TO.N,Net-(D16-A)*%
X141005000Y-159690000D03*
%TO.P,SW16,1,1_1*%
%TO.N,/ROW3*%
X134655000Y-157150000D03*
%TD*%
%TO.P,SW15,2,2_2*%
%TO.N,Net-(D15-A)*%
X141005000Y-140640000D03*
%TO.P,SW15,1,1_1*%
%TO.N,/ROW2*%
X134655000Y-138100000D03*
%TD*%
%TO.P,SW18,2,2_2*%
%TO.N,Net-(D18-A)*%
X121955000Y-121590000D03*
%TO.P,SW18,1,1_1*%
%TO.N,/ROW1*%
X115605000Y-119050000D03*
%TD*%
D10*
%TO.P,D20,2,A_2*%
%TO.N,Net-(D20-A)*%
X105680000Y-164000000D03*
D11*
%TO.P,D20,1,K_1*%
%TO.N,/COL4*%
X113300000Y-164000000D03*
%TD*%
D12*
%TO.P,SW7,2,2_2*%
%TO.N,Net-(D7-A)*%
X179105000Y-140640000D03*
%TO.P,SW7,1,1_1*%
%TO.N,/ROW2*%
X172755000Y-138100000D03*
%TD*%
D10*
%TO.P,D14,2,A_2*%
%TO.N,Net-(D14-A)*%
X124380000Y-127500000D03*
D11*
%TO.P,D14,1,K_1*%
%TO.N,/COL3*%
X132000000Y-127500000D03*
%TD*%
D12*
%TO.P,SW23,2,2_2*%
%TO.N,Net-(D23-A)*%
X102905000Y-140640000D03*
%TO.P,SW23,1,1_1*%
%TO.N,/ROW2*%
X96555000Y-138100000D03*
%TD*%
%TO.P,SW19,2,2_2*%
%TO.N,Net-(D19-A)*%
X121955000Y-140640000D03*
%TO.P,SW19,1,1_1*%
%TO.N,/ROW2*%
X115605000Y-138100000D03*
%TD*%
%TO.P,SW20,2,2_2*%
%TO.N,Net-(D20-A)*%
X121955000Y-159690000D03*
%TO.P,SW20,1,1_1*%
%TO.N,/ROW3*%
X115605000Y-157150000D03*
%TD*%
%TO.P,SW8,2,2_2*%
%TO.N,Net-(D8-A)*%
X179105000Y-159690000D03*
%TO.P,SW8,1,1_1*%
%TO.N,/ROW3*%
X172755000Y-157150000D03*
%TD*%
D10*
%TO.P,D1,2,A_2*%
%TO.N,Net-(D1-A)*%
X182190000Y-108500000D03*
D11*
%TO.P,D1,1,K_1*%
%TO.N,/COL0*%
X189810000Y-108500000D03*
%TD*%
D10*
%TO.P,D15,2,A_2*%
%TO.N,Net-(D15-A)*%
X124780000Y-145400000D03*
D11*
%TO.P,D15,1,K_1*%
%TO.N,/COL3*%
X132400000Y-145400000D03*
%TD*%
D10*
%TO.P,D6,2,A_2*%
%TO.N,Net-(D6-A)*%
X161380000Y-127500000D03*
D11*
%TO.P,D6,1,K_1*%
%TO.N,/COL1*%
X169000000Y-127500000D03*
%TD*%
D12*
%TO.P,SW10,2,2_2*%
%TO.N,Net-(D10-A)*%
X160055000Y-121590000D03*
%TO.P,SW10,1,1_1*%
%TO.N,/ROW1*%
X153705000Y-119050000D03*
%TD*%
D10*
%TO.P,D12,2,A_2*%
%TO.N,Net-(D12-A)*%
X143780000Y-164000000D03*
D11*
%TO.P,D12,1,K_1*%
%TO.N,/COL2*%
X151400000Y-164000000D03*
%TD*%
D10*
%TO.P,D7,2,A_2*%
%TO.N,Net-(D7-A)*%
X162880000Y-145400000D03*
D11*
%TO.P,D7,1,K_1*%
%TO.N,/COL1*%
X170500000Y-145400000D03*
%TD*%
D10*
%TO.P,D16,2,A_2*%
%TO.N,Net-(D16-A)*%
X124730000Y-164000000D03*
D11*
%TO.P,D16,1,K_1*%
%TO.N,/COL3*%
X132350000Y-164000000D03*
%TD*%
D10*
%TO.P,D3,2,A_2*%
%TO.N,Net-(D3-A)*%
X180880000Y-145000000D03*
D11*
%TO.P,D3,1,K_1*%
%TO.N,/COL0*%
X188500000Y-145000000D03*
%TD*%
D10*
%TO.P,D8,2,A_2*%
%TO.N,Net-(D8-A)*%
X162830000Y-164000000D03*
D11*
%TO.P,D8,1,K_1*%
%TO.N,/COL1*%
X170450000Y-164000000D03*
%TD*%
D10*
%TO.P,D21,2,A_2*%
%TO.N,Net-(D21-A)*%
X87690000Y-107500000D03*
D11*
%TO.P,D21,1,K_1*%
%TO.N,/COL5*%
X95310000Y-107500000D03*
%TD*%
D10*
%TO.P,D22,2,A_2*%
%TO.N,Net-(D22-A)*%
X86280000Y-127500000D03*
D11*
%TO.P,D22,1,K_1*%
%TO.N,/COL5*%
X93900000Y-127500000D03*
%TD*%
D10*
%TO.P,D23,2,A_2*%
%TO.N,Net-(D23-A)*%
X86680000Y-145400000D03*
D11*
%TO.P,D23,1,K_1*%
%TO.N,/COL5*%
X94300000Y-145400000D03*
%TD*%
D12*
%TO.P,SW12,2,2_2*%
%TO.N,Net-(D12-A)*%
X160055000Y-159690000D03*
%TO.P,SW12,1,1_1*%
%TO.N,/ROW3*%
X153705000Y-157150000D03*
%TD*%
D10*
%TO.P,D24,2,A_2*%
%TO.N,Net-(D24-A)*%
X86630000Y-164000000D03*
D11*
%TO.P,D24,1,K_1*%
%TO.N,/COL5*%
X94250000Y-164000000D03*
%TD*%
D10*
%TO.P,D13,2,A_2*%
%TO.N,Net-(D13-A)*%
X122190000Y-108000000D03*
D11*
%TO.P,D13,1,K_1*%
%TO.N,/COL3*%
X129810000Y-108000000D03*
%TD*%
D12*
%TO.P,SW11,2,2_2*%
%TO.N,Net-(D11-A)*%
X160055000Y-140640000D03*
%TO.P,SW11,1,1_1*%
%TO.N,/ROW2*%
X153705000Y-138100000D03*
%TD*%
D10*
%TO.P,D4,2,A_2*%
%TO.N,Net-(D4-A)*%
X181880000Y-164000000D03*
D11*
%TO.P,D4,1,K_1*%
%TO.N,/COL0*%
X189500000Y-164000000D03*
%TD*%
D12*
%TO.P,SW6,2,2_2*%
%TO.N,Net-(D6-A)*%
X179105000Y-121590000D03*
%TO.P,SW6,1,1_1*%
%TO.N,/ROW1*%
X172755000Y-119050000D03*
%TD*%
D10*
%TO.P,D5,2,A_2*%
%TO.N,Net-(D5-A)*%
X161690000Y-107500000D03*
D11*
%TO.P,D5,1,K_1*%
%TO.N,/COL1*%
X169310000Y-107500000D03*
%TD*%
D10*
%TO.P,D9,2,A_2*%
%TO.N,Net-(D9-A)*%
X142690000Y-107500000D03*
D11*
%TO.P,D9,1,K_1*%
%TO.N,/COL2*%
X150310000Y-107500000D03*
%TD*%
D12*
%TO.P,SW22,2,2_2*%
%TO.N,Net-(D22-A)*%
X102905000Y-121590000D03*
%TO.P,SW22,1,1_1*%
%TO.N,/ROW1*%
X96555000Y-119050000D03*
%TD*%
D10*
%TO.P,D11,2,A_2*%
%TO.N,Net-(D11-A)*%
X143830000Y-145400000D03*
D11*
%TO.P,D11,1,K_1*%
%TO.N,/COL2*%
X151450000Y-145400000D03*
%TD*%
D12*
%TO.P,SW14,2,2_2*%
%TO.N,Net-(D14-A)*%
X141005000Y-121590000D03*
%TO.P,SW14,1,1_1*%
%TO.N,/ROW1*%
X134655000Y-119050000D03*
%TD*%
D10*
%TO.P,D18,2,A_2*%
%TO.N,Net-(D18-A)*%
X105330000Y-127500000D03*
D11*
%TO.P,D18,1,K_1*%
%TO.N,/COL4*%
X112950000Y-127500000D03*
%TD*%
D10*
%TO.P,D17,2,A_2*%
%TO.N,Net-(D17-A)*%
X106485000Y-108000000D03*
D11*
%TO.P,D17,1,K_1*%
%TO.N,/COL4*%
X114105000Y-108000000D03*
%TD*%
D10*
%TO.P,D10,2,A_2*%
%TO.N,Net-(D10-A)*%
X142380000Y-128000000D03*
D11*
%TO.P,D10,1,K_1*%
%TO.N,/COL2*%
X150000000Y-128000000D03*
%TD*%
D12*
%TO.P,SW24,2,2_2*%
%TO.N,Net-(D24-A)*%
X102905000Y-159690000D03*
%TO.P,SW24,1,1_1*%
%TO.N,/ROW3*%
X96555000Y-157150000D03*
%TD*%
D10*
%TO.P,D19,2,A_2*%
%TO.N,Net-(D19-A)*%
X105730000Y-145400000D03*
D11*
%TO.P,D19,1,K_1*%
%TO.N,/COL4*%
X113350000Y-145400000D03*
%TD*%
D12*
%TO.P,SW4,1,1_1*%
%TO.N,/ROW3*%
X191805000Y-157150000D03*
%TO.P,SW4,2,2_2*%
%TO.N,Net-(D4-A)*%
X198155000Y-159690000D03*
%TD*%
%TO.P,SW1,1,1_1*%
%TO.N,/ROW0*%
X191805000Y-100000000D03*
%TO.P,SW1,2,2_2*%
%TO.N,Net-(D1-A)*%
X198155000Y-102540000D03*
%TD*%
%TO.P,SW13,1,1_1*%
%TO.N,/ROW0*%
X134655000Y-100000000D03*
%TO.P,SW13,2,2_2*%
%TO.N,Net-(D13-A)*%
X141005000Y-102540000D03*
%TD*%
%TO.P,SW5,1,1_1*%
%TO.N,/ROW0*%
X172755000Y-100000000D03*
%TO.P,SW5,2,2_2*%
%TO.N,Net-(D5-A)*%
X179105000Y-102540000D03*
%TD*%
%TO.P,SW9,1,1_1*%
%TO.N,/ROW0*%
X153705000Y-100000000D03*
%TO.P,SW9,2,2_2*%
%TO.N,Net-(D9-A)*%
X160055000Y-102540000D03*
%TD*%
%TO.P,SW3,1,1_1*%
%TO.N,/ROW2*%
X191805000Y-138100000D03*
%TO.P,SW3,2,2_2*%
%TO.N,Net-(D3-A)*%
X198155000Y-140640000D03*
%TD*%
%TO.P,SW17,1,1_1*%
%TO.N,/ROW0*%
X115605000Y-100000000D03*
%TO.P,SW17,2,2_2*%
%TO.N,Net-(D17-A)*%
X121955000Y-102540000D03*
%TD*%
%TO.P,SW21,1,1_1*%
%TO.N,/ROW0*%
X96555000Y-100000000D03*
%TO.P,SW21,2,2_2*%
%TO.N,Net-(D21-A)*%
X102905000Y-102540000D03*
%TD*%
%TO.P,SW2,1,1_1*%
%TO.N,/ROW1*%
X191805000Y-119050000D03*
%TO.P,SW2,2,2_2*%
%TO.N,Net-(D2-A)*%
X198155000Y-121590000D03*
%TD*%
D13*
%TO.N,/ROW0*%
X144500000Y-175699997D03*
%TO.N,/ROW1*%
X144500000Y-176500000D03*
%TO.N,/ROW2*%
X145000000Y-177400000D03*
%TO.N,/ROW3*%
X146000000Y-178200000D03*
%TD*%
%TO.N,/ROW0*%
D14*
X144451474Y-175699997D02*
X144500000Y-175699997D01*
X145802942Y-180700000D02*
X143900000Y-178797058D01*
X200355000Y-160674774D02*
X180329772Y-180700000D01*
X191805000Y-100000000D02*
X197594899Y-100000000D01*
X143900000Y-178797058D02*
X143900000Y-176251471D01*
X180329772Y-180700000D02*
X145802942Y-180700000D01*
X143900000Y-176251471D02*
X144451474Y-175699997D01*
X200355000Y-102760101D02*
X200355000Y-160674774D01*
X197594899Y-100000000D02*
X200355000Y-102760101D01*
%TO.N,/ROW1*%
X144400000Y-178731372D02*
X144400000Y-176600000D01*
X199955000Y-160509088D02*
X180164087Y-180300000D01*
X145968628Y-180300000D02*
X144400000Y-178731372D01*
X168150000Y-119050000D02*
X153125101Y-134074899D01*
X180164087Y-180300000D02*
X145968628Y-180300000D01*
X199955000Y-140460101D02*
X199955000Y-160509088D01*
X153125101Y-136700000D02*
X196194899Y-136700000D01*
X153125101Y-134074899D02*
X153125101Y-136700000D01*
X180500000Y-119050000D02*
X168150000Y-119050000D01*
X144400000Y-176600000D02*
X144500000Y-176500000D01*
X96555000Y-119050000D02*
X180500000Y-119050000D01*
X196194899Y-136700000D02*
X199955000Y-140460101D01*
%TO.N,/ROW2*%
X146134314Y-179900000D02*
X145000000Y-178765686D01*
X179998402Y-179900000D02*
X146134314Y-179900000D01*
X196194899Y-155750000D02*
X199555000Y-159110101D01*
X199555000Y-159110101D02*
X199555000Y-160343402D01*
X186224365Y-138100000D02*
X172175101Y-152149264D01*
X172175101Y-155750000D02*
X196194899Y-155750000D01*
X145000000Y-178765686D02*
X145000000Y-177400000D01*
X199555000Y-160343402D02*
X179998402Y-179900000D01*
X172175101Y-152149264D02*
X172175101Y-155750000D01*
X191805000Y-138100000D02*
X186224365Y-138100000D01*
%TO.N,/ROW3*%
X146000000Y-179200000D02*
X146000000Y-178200000D01*
X164824365Y-179500000D02*
X146300000Y-179500000D01*
X187174365Y-157150000D02*
X164824365Y-179500000D01*
X146300000Y-179500000D02*
X146000000Y-179200000D01*
X191805000Y-157150000D02*
X187174365Y-157150000D01*
X168124365Y-157150000D02*
X172755000Y-157150000D01*
%TO.N,/ROW1*%
X172755000Y-119050000D02*
X178544899Y-119050000D01*
%TO.N,Net-(D14-A)*%
X141005000Y-121505000D02*
X141000000Y-121500000D01*
X141005000Y-121590000D02*
X141005000Y-121505000D01*
X141000000Y-121500000D02*
X130380000Y-121500000D01*
X130380000Y-121500000D02*
X124380000Y-127500000D01*
%TO.N,/ROW3*%
X96555000Y-157150000D02*
X191805000Y-157150000D01*
%TO.N,/ROW2*%
X96555000Y-138100000D02*
X191805000Y-138100000D01*
%TO.N,/ROW1*%
X180500000Y-119050000D02*
X191805000Y-119050000D01*
%TO.N,/ROW0*%
X96555000Y-100000000D02*
X191805000Y-100000000D01*
%TO.N,Net-(D17-A)*%
X106485000Y-108000000D02*
X111945000Y-102540000D01*
X111945000Y-102540000D02*
X121955000Y-102540000D01*
%TO.N,Net-(D10-A)*%
X142380000Y-128000000D02*
X148790000Y-121590000D01*
X148790000Y-121590000D02*
X160055000Y-121590000D01*
%TO.N,Net-(D9-A)*%
X142690000Y-107500000D02*
X147650000Y-102540000D01*
X147650000Y-102540000D02*
X160055000Y-102540000D01*
%TO.N,Net-(D13-A)*%
X122190000Y-108000000D02*
X127650000Y-102540000D01*
X127650000Y-102540000D02*
X141005000Y-102540000D01*
%TO.N,Net-(D19-A)*%
X105730000Y-145400000D02*
X110490000Y-140640000D01*
X110490000Y-140640000D02*
X121955000Y-140640000D01*
%TO.N,Net-(D18-A)*%
X105330000Y-127500000D02*
X111240000Y-121590000D01*
X111240000Y-121590000D02*
X121955000Y-121590000D01*
%TO.N,Net-(D15-A)*%
X124780000Y-145400000D02*
X129540000Y-140640000D01*
X129540000Y-140640000D02*
X141005000Y-140640000D01*
%TO.N,Net-(D11-A)*%
X143830000Y-145400000D02*
X148590000Y-140640000D01*
X148590000Y-140640000D02*
X160055000Y-140640000D01*
%TO.N,Net-(D4-A)*%
X181880000Y-164000000D02*
X186190000Y-159690000D01*
X186190000Y-159690000D02*
X198155000Y-159690000D01*
%TO.N,Net-(D8-A)*%
X162830000Y-164000000D02*
X167140000Y-159690000D01*
X167140000Y-159690000D02*
X179105000Y-159690000D01*
%TO.N,Net-(D12-A)*%
X143780000Y-164000000D02*
X148090000Y-159690000D01*
X148090000Y-159690000D02*
X160055000Y-159690000D01*
%TO.N,Net-(D16-A)*%
X124730000Y-164000000D02*
X129040000Y-159690000D01*
X129040000Y-159690000D02*
X141005000Y-159690000D01*
%TO.N,Net-(D20-A)*%
X105680000Y-164000000D02*
X109990000Y-159690000D01*
X109990000Y-159690000D02*
X121955000Y-159690000D01*
%TO.N,Net-(D3-A)*%
X180880000Y-145000000D02*
X185240000Y-140640000D01*
X185240000Y-140640000D02*
X198155000Y-140640000D01*
%TO.N,Net-(D7-A)*%
X162880000Y-145400000D02*
X167640000Y-140640000D01*
X167640000Y-140640000D02*
X179105000Y-140640000D01*
%TO.N,Net-(D6-A)*%
X161380000Y-127500000D02*
X167290000Y-121590000D01*
X167290000Y-121590000D02*
X179105000Y-121590000D01*
%TO.N,Net-(D2-A)*%
X181880000Y-128000000D02*
X188290000Y-121590000D01*
X188290000Y-121590000D02*
X198155000Y-121590000D01*
%TO.N,Net-(D1-A)*%
X182190000Y-108500000D02*
X188150000Y-102540000D01*
X188150000Y-102540000D02*
X198155000Y-102540000D01*
%TO.N,Net-(D5-A)*%
X161690000Y-107500000D02*
X166650000Y-102540000D01*
X166650000Y-102540000D02*
X179105000Y-102540000D01*
%TO.N,Net-(D24-A)*%
X86630000Y-164000000D02*
X90940000Y-159690000D01*
X90940000Y-159690000D02*
X102905000Y-159690000D01*
%TO.N,Net-(D23-A)*%
X86680000Y-145400000D02*
X91440000Y-140640000D01*
X91440000Y-140640000D02*
X102905000Y-140640000D01*
%TO.N,Net-(D22-A)*%
X86280000Y-127500000D02*
X92190000Y-121590000D01*
X92190000Y-121590000D02*
X102905000Y-121590000D01*
%TO.N,Net-(D21-A)*%
X87690000Y-107500000D02*
X92650000Y-102540000D01*
X92650000Y-102540000D02*
X102905000Y-102540000D01*
%TD*%
M02*
